#!OML:ASF H:\Terrain\Patient Classification 1\Takeo\Monday\TakeoMonday.ASF
:FULLY-SPECIFIED
:DEGREES
248
root 10.7125 17.6738 -2.04236 3.25251 -17.0407 2.33922
lowerback 17.6936 -0.13138 4.25278
upperback 12.8891 0.190754 0.786633
thorax 3.99394 0.278815 -1.58617
lowerneck -7.62421 -5.03375 -4.9019
upperneck 29.1515 -8.01757 5.91297
head 11.0998 -3.51798 2.04643
rclavicle -1.51076e-014 3.18055e-014
rhumerus -23.0541 60.4749 -80.8668
rradius 75.4561
rwrist -11.0647
rhand -23.2491 30.4951
rfingers 7.12502
rthumb 3.20254 0.539443
lclavicle -1.51076e-014 3.18055e-014
lhumerus -20.4685 4.85977 88.6727
lradius 50.4036
lwrist 35.0865
lhand -20.8028 19.0628
lfingers 7.12502
lthumb 5.56474 48.9697
rfemur -21.4294 6.08302 14.5891
rtibia 29.9957
rfoot -10.0608 -11.5264
rtoes -4.22961
lfemur -18.2977 10.5949 -25.1153
ltibia 29.0558
lfoot -13.0647 16.1691
ltoes -3.75198
249
root 10.7081 17.689 -2.01103 3.03489 -16.9418 1.8722
lowerback 17.4688 -0.095198 4.86199
upperback 12.8355 0.306712 0.825367
thorax 4.07242 0.377922 -1.9014
lowerneck -7.77716 -5.0986 -5.09072
upperneck 29.5701 -8.19028 6.21534
head 11.3284 -3.57277 2.16722
rclavicle -7.95139e-016 -3.18055e-015
rhumerus -24.2572 59.7626 -81.7159
rradius 75.9919
rwrist -11.4018
rhand -23.2055 30.3291
rfingers 7.12502
rthumb 3.24463 0.374041
lclavicle -7.95139e-016 -3.18055e-015
lhumerus -20.4007 4.36266 88.7451
lradius 49.8322
lwrist 35.2666
lhand -21.6569 18.8085
lfingers 7.12502
lthumb 4.74008 48.7355
rfemur -20.6116 6.03457 15.1402
rtibia 29.5392
rfoot -10.034 -11.4996
rtoes -4.42361
lfemur -17.6753 10.3168 -24.5011
ltibia 28.9257
lfoot -13.3789 16.2384
ltoes -2.47488
250
root 10.7021 17.6963 -1.97748 2.73499 -16.7982 2.01554
lowerback 17.105 -0.190666 4.63932
upperback 12.8231 0.141099 0.605246
thorax 4.23051 0.294508 -1.98665
lowerneck -7.99527 -4.99694 -4.56078
upperneck 29.9396 -8.10377 5.96483
head 11.4739 -3.49749 1.99217
rclavicle -5.24792e-014 2.8625e-014
rhumerus -24.882 59.5315 -82.5173
rradius 76.5037
rwrist -11.6904
rhand -22.9241 30.2174
rfingers 7.12502
rthumb 3.51636 0.266671
lclavicle -5.24792e-014 2.8625e-014
lhumerus -20.3581 4.63166 88.3921
lradius 49.3566
lwrist 35.2132
lhand -21.6278 18.4749
lfingers 7.12502
lthumb 4.76814 48.4012
rfemur -19.8771 5.82957 15.0274
rtibia 29.0801
rfoot -10.0515 -11.4079
rtoes -4.05857
lfemur -17.208 9.99996 -24.5501
ltibia 28.89
lfoot -13.8056 16.2578
ltoes -1.02851
251
root 10.6937 17.692 -1.95809 2.58149 -16.5638 2.08879
lowerback 16.841 -0.264317 4.51324
upperback 12.6263 0.0315404 0.442057
thorax 4.13751 0.236405 -2.07501
lowerneck -7.87819 -4.90294 -4.30659
upperneck 30.291 -8.04829 5.9352
head 11.5715 -3.44858 1.95036
rclavicle 2.06736e-014 -1.74931e-014
rhumerus -25.8411 59.1924 -83.5048
rradius 77.015
rwrist -11.9195
rhand -22.4192 29.861
rfingers 7.12502
rthumb 4.004 -0.0811055
lclavicle 2.06736e-014 -1.74931e-014
lhumerus -20.5097 4.80452 88.0206
lradius 48.8933
lwrist 35.056
lhand -19.9722 18.5081
lfingers 7.12502
lthumb 6.36668 48.3924
rfemur -19.3884 5.67361 14.9956
rtibia 28.6696
rfoot -10.0328 -11.4953
rtoes -3.42843
lfemur -17.0123 9.79409 -24.5961
ltibia 28.9062
lfoot -13.6779 16.4107
ltoes -1.99701
252
root 10.6836 17.6897 -1.94679 2.70383 -16.4851 1.38861
lowerback 16.5624 -0.236419 5.17027
upperback 12.4217 0.140537 0.544119
thorax 4.07742 0.327021 -2.34912
lowerneck -7.88798 -4.94948 -4.35724
upperneck 30.779 -8.15444 5.96293
head 11.7789 -3.49093 1.95957
rclavicle -3.77691e-014 -3.18055e-015
rhumerus -26.8461 58.6498 -84.2666
rradius 77.559
rwrist -12.3472
rhand -22.5451 29.8023
rfingers 7.12502
rthumb 3.88239 -0.142034
lclavicle -3.77691e-014 -3.18055e-015
lhumerus -20.5606 4.55991 87.8872
lradius 48.4183
lwrist 34.9038
lhand -18.6618 18.3646
lfingers 7.12502
lthumb 7.63163 48.2069
rfemur -19.1223 5.82482 15.7942
rtibia 28.4049
rfoot -9.93779 -11.7717
rtoes -3.49547
lfemur -16.861 9.76265 -23.8306
ltibia 28.8269
lfoot -13.5315 16.521
ltoes -2.62919
253
root 10.6786 17.6973 -1.92703 2.5756 -16.5997 1.00838
lowerback 16.2485 -0.194983 5.42019
upperback 12.3934 0.205787 0.532607
thorax 4.2217 0.379828 -2.50807
lowerneck -8.1589 -4.95318 -4.32719
upperneck 31.271 -8.22802 6.03863
head 12.0409 -3.49895 1.97027
rclavicle -4.45278e-014 0
rhumerus -27.3952 58.3582 -84.7872
rradius 78.0939
rwrist -12.9195
rhand -22.992 29.9332
rfingers 7.12502
rthumb 3.45079 -0.0185834
lclavicle -4.45278e-014 0
lhumerus -20.4326 4.522 87.7181
lradius 47.9059
lwrist 34.7918
lhand -18.4819 18.2693
lfingers 7.12502
lthumb 7.80528 48.1052
rfemur -18.7223 5.95961 16.2278
rtibia 28.2313
rfoot -9.92232 -11.7648
rtoes -3.17189
lfemur -16.3889 9.77599 -23.3794
ltibia 28.6481
lfoot -13.7606 16.6219
ltoes -2.29943
254
root 10.6786 17.7051 -1.90474 2.06835 -16.6599 1.39494
lowerback 16.054 -0.180338 4.94256
upperback 12.3913 0.162726 0.362284
thorax 4.30561 0.336676 -2.41471
lowerneck -8.18857 -4.83355 -4.19954
upperneck 31.5184 -8.10437 6.02428
head 12.1323 -3.42929 1.96069
rclavicle 1.63003e-014 -1.59028e-015
rhumerus -27.9467 58.2895 -85.3587
rradius 78.5765
rwrist -13.4591
rhand -22.8437 29.4457
rfingers 7.12502
rthumb 3.594 -0.50378
lclavicle 1.63003e-014 -1.59028e-015
lhumerus -20.5257 4.85289 87.6041
lradius 47.5113
lwrist 34.6576
lhand -18.4929 18.2233
lfingers 7.12502
lthumb 7.79462 48.0597
rfemur -18.1091 5.89732 15.8429
rtibia 28.0465
rfoot -9.92014 -11.598
rtoes -2.53542
lfemur -15.6897 9.6923 -23.7242
ltibia 28.3775
lfoot -13.7797 16.8203
ltoes -2.75475
255
root 10.6765 17.7055 -1.88465 1.72596 -16.7495 1.73765
lowerback 15.8146 -0.123624 4.4809
upperback 12.296 0.18043 0.208069
thorax 4.31554 0.321527 -2.32045
lowerneck -8.28595 -4.76657 -3.85892
upperneck 31.9156 -8.01248 5.69801
head 12.2768 -3.38064 1.79153
rclavicle -2.82274e-014 -7.95139e-016
rhumerus -28.6954 58.1682 -85.9906
rradius 79.1015
rwrist -13.7922
rhand -22.5969 29.0483
rfingers 7.12502
rthumb 3.83233 -0.896966
lclavicle -2.82274e-014 -7.95139e-016
lhumerus -20.8437 5.20466 87.5374
lradius 47.3286
lwrist 34.389
lhand -18.4143 18.2041
lfingers 7.12502
lthumb 7.87051 48.0376
rfemur -17.6732 5.86251 15.5058
rtibia 27.8425
rfoot -9.75572 -11.5308
rtoes -2.79561
lfemur -15.1583 9.57528 -24.0245
ltibia 28.0173
lfoot -13.7781 16.9614
ltoes -2.0197
256
root 10.6709 17.7128 -1.86519 1.58695 -16.8275 1.74912
lowerback 15.6152 0.0113996 4.38146
upperback 12.0589 0.348773 0.146849
thorax 4.16759 0.39742 -2.34884
lowerneck -8.21632 -4.82809 -3.8849
upperneck 32.3716 -8.19145 5.858
head 12.4731 -3.43929 1.83865
rclavicle -4.77083e-015 1.98785e-014
rhumerus -30.0046 57.658 -86.8508
rradius 79.7525
rwrist -13.9242
rhand -22.3842 28.822
rfingers 7.12502
rthumb 4.03778 -1.1195
lclavicle -4.77083e-015 1.98785e-014
lhumerus -21.2703 4.92612 87.5422
lradius 47.1054
lwrist 34.342
lhand -18.6773 18.382
lfingers 7.12502
lthumb 7.61664 48.2249
rfemur -17.364 5.86866 15.5197
rtibia 27.6063
rfoot -9.57568 -11.5219
rtoes -2.95173
lfemur -14.7528 9.47111 -23.9831
ltibia 27.6546
lfoot -13.8084 17.069
ltoes -0.795101
257
root 10.6655 17.7289 -1.84332 1.50116 -16.7285 1.39509
lowerback 15.4676 -0.00869447 4.63754
upperback 11.7883 0.355486 0.225884
thorax 3.952 0.406863 -2.41034
lowerneck -7.83681 -4.75646 -3.76326
upperneck 32.4534 -8.11447 5.80145
head 12.4133 -3.40748 1.81685
rclavicle -4.92986e-014 3.73715e-014
rhumerus -31.3481 57.4591 -87.7456
rradius 80.3279
rwrist -14.1627
rhand -22.1772 28.4519
rfingers 7.12502
rthumb 4.23766 -1.4857
lclavicle -4.92986e-014 3.73715e-014
lhumerus -21.6848 4.72781 87.6088
lradius 46.7598
lwrist 34.5101
lhand -19.4271 18.3619
lfingers 7.12502
lthumb 6.89291 48.2297
rfemur -16.9224 5.81793 15.9268
rtibia 27.3326
rfoot -9.65848 -11.53
rtoes -3.27222
lfemur -14.3316 9.35912 -23.5677
ltibia 27.3915
lfoot -13.594 17.1881
ltoes -1.33792
258
root 10.6656 17.7407 -1.81652 1.41984 -16.6358 1.11855
lowerback 15.1899 -0.204263 4.67039
upperback 11.6536 0.0950159 0.252298
thorax 3.92963 0.275163 -2.37026
lowerneck -7.91202 -4.50738 -3.4236
upperneck 32.6559 -7.71608 5.3821
head 12.4506 -3.2401 1.65036
rclavicle -2.74323e-014 3.49861e-014
rhumerus -31.9583 57.9005 -88.3122
rradius 80.8678
rwrist -14.4375
rhand -22.1447 28.339
rfingers 7.12502
rthumb 4.26907 -1.59798
lclavicle -2.74323e-014 3.49861e-014
lhumerus -21.8181 5.19131 87.4383
lradius 46.3845
lwrist 34.579
lhand -19.9045 18.3187
lfingers 7.12502
lthumb 6.43201 48.201
rfemur -16.4646 5.65869 16.2297
rtibia 27.0365
rfoot -9.77446 -11.416
rtoes -3.99429
lfemur -13.9536 9.22211 -23.261
ltibia 27.2332
lfoot -13.6024 17.2752
ltoes -2.00814
